<mxfile host="Electron" modified="2023-06-13T11:06:23.454Z" agent="Mozilla/5.0 (Macintosh; Intel Mac OS X 10_15_7) AppleWebKit/537.36 (KHTML, like Gecko) draw.io/21.3.7 Chrome/112.0.5615.204 Electron/24.5.0 Safari/537.36" etag="tPrlkTw08hIRMZbiAC-C" version="21.3.7" type="device">
  <diagram name="第1頁" id="umt8CHyOZ_VusQxb9OI4">
    <mxGraphModel dx="866" dy="590" grid="1" gridSize="10" guides="1" tooltips="1" connect="1" arrows="1" fold="1" page="1" pageScale="1" pageWidth="827" pageHeight="1169" math="0" shadow="0">
      <root>
        <mxCell id="0" />
        <mxCell id="1" parent="0" />
        <mxCell id="48n7o6z_aa7ZRxHG1Xjg-1" value="&lt;font style=&quot;font-size: 18px;&quot;&gt;Document&lt;/font&gt;" style="ellipse;whiteSpace=wrap;html=1;" vertex="1" parent="1">
          <mxGeometry x="400" y="40" width="120" height="80" as="geometry" />
        </mxCell>
        <mxCell id="48n7o6z_aa7ZRxHG1Xjg-2" value="&lt;font style=&quot;font-size: 18px;&quot;&gt;Element&lt;br&gt;(html)&lt;br&gt;&lt;/font&gt;" style="ellipse;whiteSpace=wrap;html=1;" vertex="1" parent="1">
          <mxGeometry x="400" y="160" width="120" height="80" as="geometry" />
        </mxCell>
        <mxCell id="48n7o6z_aa7ZRxHG1Xjg-7" value="&lt;span style=&quot;font-size: 18px;&quot;&gt;Text&lt;br&gt;(example)&lt;br&gt;&lt;/span&gt;" style="ellipse;whiteSpace=wrap;html=1;" vertex="1" parent="1">
          <mxGeometry x="320" y="520" width="120" height="80" as="geometry" />
        </mxCell>
        <mxCell id="48n7o6z_aa7ZRxHG1Xjg-9" value="&lt;span style=&quot;font-size: 18px;&quot;&gt;Attribute&lt;br&gt;(class)&lt;br&gt;&lt;/span&gt;" style="ellipse;whiteSpace=wrap;html=1;" vertex="1" parent="1">
          <mxGeometry x="640" y="520" width="120" height="80" as="geometry" />
        </mxCell>
        <mxCell id="48n7o6z_aa7ZRxHG1Xjg-10" value="&lt;font style=&quot;font-size: 18px;&quot;&gt;Element&lt;br&gt;(head)&lt;br&gt;&lt;/font&gt;" style="ellipse;whiteSpace=wrap;html=1;" vertex="1" parent="1">
          <mxGeometry x="320" y="280" width="120" height="80" as="geometry" />
        </mxCell>
        <mxCell id="48n7o6z_aa7ZRxHG1Xjg-11" value="&lt;font style=&quot;font-size: 18px;&quot;&gt;Element&lt;br&gt;(body)&lt;br&gt;&lt;/font&gt;" style="ellipse;whiteSpace=wrap;html=1;" vertex="1" parent="1">
          <mxGeometry x="480" y="280" width="120" height="80" as="geometry" />
        </mxCell>
        <mxCell id="48n7o6z_aa7ZRxHG1Xjg-12" value="&lt;font style=&quot;font-size: 18px;&quot;&gt;Element&lt;br&gt;(title)&lt;br&gt;&lt;/font&gt;" style="ellipse;whiteSpace=wrap;html=1;" vertex="1" parent="1">
          <mxGeometry x="320" y="400" width="120" height="80" as="geometry" />
        </mxCell>
        <mxCell id="48n7o6z_aa7ZRxHG1Xjg-13" value="&lt;font style=&quot;font-size: 18px;&quot;&gt;Element&lt;br&gt;(h1)&lt;br&gt;&lt;/font&gt;" style="ellipse;whiteSpace=wrap;html=1;" vertex="1" parent="1">
          <mxGeometry x="480" y="400" width="120" height="80" as="geometry" />
        </mxCell>
        <mxCell id="48n7o6z_aa7ZRxHG1Xjg-14" value="&lt;span style=&quot;font-size: 18px;&quot;&gt;Text&lt;br&gt;(hello world)&lt;br&gt;&lt;/span&gt;" style="ellipse;whiteSpace=wrap;html=1;" vertex="1" parent="1">
          <mxGeometry x="480" y="520" width="120" height="80" as="geometry" />
        </mxCell>
        <mxCell id="48n7o6z_aa7ZRxHG1Xjg-17" value="" style="endArrow=classic;html=1;rounded=0;exitX=1;exitY=1;exitDx=0;exitDy=0;entryX=0.5;entryY=0;entryDx=0;entryDy=0;" edge="1" parent="1" source="48n7o6z_aa7ZRxHG1Xjg-13" target="48n7o6z_aa7ZRxHG1Xjg-9">
          <mxGeometry width="50" height="50" relative="1" as="geometry">
            <mxPoint x="200" y="230" as="sourcePoint" />
            <mxPoint x="250" y="180" as="targetPoint" />
          </mxGeometry>
        </mxCell>
        <mxCell id="48n7o6z_aa7ZRxHG1Xjg-18" value="" style="endArrow=classic;html=1;rounded=0;exitX=0.5;exitY=1;exitDx=0;exitDy=0;entryX=0.5;entryY=0;entryDx=0;entryDy=0;" edge="1" parent="1" source="48n7o6z_aa7ZRxHG1Xjg-13" target="48n7o6z_aa7ZRxHG1Xjg-14">
          <mxGeometry width="50" height="50" relative="1" as="geometry">
            <mxPoint x="210" y="240" as="sourcePoint" />
            <mxPoint x="260" y="190" as="targetPoint" />
          </mxGeometry>
        </mxCell>
        <mxCell id="48n7o6z_aa7ZRxHG1Xjg-19" value="" style="endArrow=classic;html=1;rounded=0;exitX=0.5;exitY=1;exitDx=0;exitDy=0;entryX=0.5;entryY=0;entryDx=0;entryDy=0;" edge="1" parent="1" source="48n7o6z_aa7ZRxHG1Xjg-12" target="48n7o6z_aa7ZRxHG1Xjg-7">
          <mxGeometry width="50" height="50" relative="1" as="geometry">
            <mxPoint x="220" y="250" as="sourcePoint" />
            <mxPoint x="300" y="510" as="targetPoint" />
          </mxGeometry>
        </mxCell>
        <mxCell id="48n7o6z_aa7ZRxHG1Xjg-20" value="" style="endArrow=classic;html=1;rounded=0;exitX=0.5;exitY=1;exitDx=0;exitDy=0;" edge="1" parent="1" source="48n7o6z_aa7ZRxHG1Xjg-11" target="48n7o6z_aa7ZRxHG1Xjg-13">
          <mxGeometry width="50" height="50" relative="1" as="geometry">
            <mxPoint x="230" y="260" as="sourcePoint" />
            <mxPoint x="280" y="210" as="targetPoint" />
          </mxGeometry>
        </mxCell>
        <mxCell id="48n7o6z_aa7ZRxHG1Xjg-21" value="" style="endArrow=classic;html=1;rounded=0;exitX=0.5;exitY=1;exitDx=0;exitDy=0;" edge="1" parent="1" source="48n7o6z_aa7ZRxHG1Xjg-10" target="48n7o6z_aa7ZRxHG1Xjg-12">
          <mxGeometry width="50" height="50" relative="1" as="geometry">
            <mxPoint x="240" y="270" as="sourcePoint" />
            <mxPoint x="290" y="220" as="targetPoint" />
          </mxGeometry>
        </mxCell>
        <mxCell id="48n7o6z_aa7ZRxHG1Xjg-22" value="" style="endArrow=classic;html=1;rounded=0;exitX=0.5;exitY=1;exitDx=0;exitDy=0;entryX=0.5;entryY=0;entryDx=0;entryDy=0;" edge="1" parent="1" source="48n7o6z_aa7ZRxHG1Xjg-2" target="48n7o6z_aa7ZRxHG1Xjg-11">
          <mxGeometry width="50" height="50" relative="1" as="geometry">
            <mxPoint x="250" y="280" as="sourcePoint" />
            <mxPoint x="300" y="230" as="targetPoint" />
          </mxGeometry>
        </mxCell>
        <mxCell id="48n7o6z_aa7ZRxHG1Xjg-23" value="" style="endArrow=classic;html=1;rounded=0;exitX=0.5;exitY=1;exitDx=0;exitDy=0;entryX=0.5;entryY=0;entryDx=0;entryDy=0;" edge="1" parent="1" source="48n7o6z_aa7ZRxHG1Xjg-2" target="48n7o6z_aa7ZRxHG1Xjg-10">
          <mxGeometry width="50" height="50" relative="1" as="geometry">
            <mxPoint x="260" y="290" as="sourcePoint" />
            <mxPoint x="310" y="240" as="targetPoint" />
          </mxGeometry>
        </mxCell>
        <mxCell id="48n7o6z_aa7ZRxHG1Xjg-24" value="" style="endArrow=classic;html=1;rounded=0;exitX=0.5;exitY=1;exitDx=0;exitDy=0;entryX=0.5;entryY=0;entryDx=0;entryDy=0;" edge="1" parent="1" source="48n7o6z_aa7ZRxHG1Xjg-1" target="48n7o6z_aa7ZRxHG1Xjg-2">
          <mxGeometry width="50" height="50" relative="1" as="geometry">
            <mxPoint x="270" y="300" as="sourcePoint" />
            <mxPoint x="320" y="250" as="targetPoint" />
          </mxGeometry>
        </mxCell>
      </root>
    </mxGraphModel>
  </diagram>
</mxfile>
